<svg width="15" height="12" viewBox="0 0 15 12" fill="none" xmlns="http://www.w3.org/2000/svg">
<path d="M0.0756561 5.45184L5.28265 0.0714207C5.33047 0.0259316 5.39578 7.87728e-08 5.46419 7.72775e-08L8.29263 1.546e-08C8.39651 1.31897e-08 8.49062 0.0596815 8.53023 0.151141C8.56983 0.242601 8.5477 0.34729 8.47469 0.417725L3.44924 5.62501L8.92469 10.8323C8.99823 10.9022 9.02034 11.0074 8.98023 11.0989C8.94011 11.1903 8.84651 11.25 8.74263 11.25L5.91419 11.25C5.8458 11.25 5.78047 11.2241 5.73214 11.1786L0.0751497 5.79814C-0.025133 5.70228 -0.025133 5.54772 0.0756561 5.45184Z" fill="#594E4B"/>
<path d="M2.37891 5.39844L14.3997 5.39844" stroke="#594E4B" stroke-width="3"/>
</svg>
