<svg width="9" height="11" viewBox="0 0 9 11" fill="none" xmlns="http://www.w3.org/2000/svg">
<path d="M0.0681497 4.96723L4.8123 0.0650722C4.85587 0.0236266 4.91537 7.17707e-08 4.97771 7.04084e-08L7.55473 1.40858e-08C7.64937 1.20173e-08 7.73512 0.0543765 7.7712 0.137706C7.80729 0.221036 7.78713 0.31642 7.7206 0.380594L3.14186 5.12501L8.1306 9.86941C8.19761 9.93314 8.21775 10.0289 8.1812 10.1123C8.14466 10.1956 8.05937 10.25 7.96473 10.25L5.38771 10.25C5.32539 10.25 5.26587 10.2264 5.22184 10.1849L0.0676881 5.28275C-0.0236806 5.19541 -0.0236806 5.05459 0.0681497 4.96723Z" fill="white"/>
</svg>
